<?xml version="1.0" encoding="utf-8"?>
<!-- Generator: Adobe Illustrator 16.0.0, SVG Export Plug-In . SVG Version: 6.00 Build 0)  -->
<!DOCTYPE svg PUBLIC "-//W3C//DTD SVG 1.1//EN" "http://www.w3.org/Graphics/SVG/1.1/DTD/svg11.dtd">
<svg version="1.1" id="Layer_1" xmlns="http://www.w3.org/2000/svg" xmlns:xlink="http://www.w3.org/1999/xlink" x="0px" y="0px"
	 width="792px" height="612px" viewBox="0 0 792 612" enable-background="new 0 0 792 612" xml:space="preserve">
<g id="XMLID_1_">
	<ellipse fill="#29ABE3" cx="375.865" cy="240.34" rx="65.967" ry="65.66"/>
	<path fill="#29ABE3" d="M375.865,306.5c-36.649,0-66.466-29.679-66.466-66.16s29.817-66.16,66.466-66.16
		c36.65,0,66.467,29.679,66.467,66.16S412.516,306.5,375.865,306.5z M375.865,175.181c-36.098,0-65.466,29.23-65.466,65.16
		s29.368,65.16,65.466,65.16c36.099,0,65.467-29.23,65.467-65.16S411.964,175.181,375.865,175.181z"/>
</g>
<g>
	<g>
		<path fill="#29ABE3" d="M375.865,385.521L375.865,385.521c-21.989-46.479-63.23-98.702-65.966-145.181
			c43.978,0,87.956,0,131.933,0C439.096,286.819,397.854,339.043,375.865,385.521z"/>
	</g>
	<g>
		<path fill="#29ABE3" d="M375.865,386.69l-0.452-0.955c-6.843-14.464-15.369-29.169-24.396-44.737
			c-19.531-33.684-39.727-68.514-41.617-100.628l-0.031-0.529h132.994l-0.031,0.529c-1.891,32.115-22.087,66.946-41.618,100.629
			c-9.027,15.568-17.553,30.272-24.396,44.736L375.865,386.69z M310.431,240.84c2.068,31.732,22.087,66.26,41.452,99.657
			c8.84,15.246,17.201,29.666,23.983,43.86c6.782-14.194,15.143-28.613,23.982-43.859c19.365-33.396,39.385-67.926,41.452-99.658
			H310.431z"/>
	</g>
</g>
<circle fill="#FBFDFD" cx="375.798" cy="239.908" r="58.933"/>
<path id="path5" fill="#29ABE3" d="M347.115,244.253c0.077,3.092,1.904,9.489,10.246,9.489c5.792,0,9.934-3.218,9.934-7.027
	c0-3.864-2.32-7.251-8.97-8.54l-7.009-1.372c-8.943-2.036-14.404-6.791-14.404-15.369c0-8.686,6.244-17.135,20.618-17.135
	c16.212,0,19.629,12.259,19.629,17.091h-11.09c0,0,0.393-8.2-9.199-8.2c-5.271,0-8.83,2.33-8.83,7.347
	c0,4.421,4.106,6.02,6.476,6.562l10.377,2.226c8.214,1.968,13.865,6.34,13.865,15.921c0,13.833-12.276,17.754-21.311,17.754
	c-15.936,0-21.364-10.682-21.364-18.747H347.115"/>
<polyline id="polyline7" fill="#29ABE3" points="397.206,252.04 418.473,252.04 418.473,261.823 385.767,261.823 385.767,205.339 
	397.206,205.339 397.206,252.04 "/>
</svg>
